<mxfile host="app.diagrams.net" agent="Mozilla/5.0 (Windows NT 10.0; Win64; x64) AppleWebKit/537.36 (KHTML, like Gecko) Chrome/131.0.0.0 Safari/537.36" version="25.0.3">
  <diagram id="C5RBs43oDa-KdzZeNtuy" name="Page-1">
    <mxGraphModel dx="819" dy="470" grid="0" gridSize="10" guides="1" tooltips="1" connect="1" arrows="1" fold="1" page="1" pageScale="1" pageWidth="2339" pageHeight="3300" math="0" shadow="0">
      <root>
        <mxCell id="WIyWlLk6GJQsqaUBKTNV-0" />
        <mxCell id="WIyWlLk6GJQsqaUBKTNV-1" parent="WIyWlLk6GJQsqaUBKTNV-0" />
        <mxCell id="D81ILoCINkFqpTYE0A_S-12" style="edgeStyle=none;curved=1;rounded=0;orthogonalLoop=1;jettySize=auto;html=1;exitX=0.5;exitY=1;exitDx=0;exitDy=0;entryX=0.5;entryY=0;entryDx=0;entryDy=0;fontSize=12;startSize=8;endSize=8;endArrow=none;endFill=0;" parent="WIyWlLk6GJQsqaUBKTNV-1" source="D81ILoCINkFqpTYE0A_S-13" edge="1">
          <mxGeometry relative="1" as="geometry">
            <mxPoint x="847" y="517" as="targetPoint" />
          </mxGeometry>
        </mxCell>
        <mxCell id="D81ILoCINkFqpTYE0A_S-13" value="USUARIO" style="rounded=0;whiteSpace=wrap;html=1;" parent="WIyWlLk6GJQsqaUBKTNV-1" vertex="1">
          <mxGeometry x="787" y="156" width="120" height="60" as="geometry" />
        </mxCell>
        <mxCell id="D81ILoCINkFqpTYE0A_S-14" style="edgeStyle=none;curved=1;rounded=0;orthogonalLoop=1;jettySize=auto;html=1;exitX=0.5;exitY=1;exitDx=0;exitDy=0;entryX=0.5;entryY=0;entryDx=0;entryDy=0;fontSize=12;startSize=8;endSize=8;endArrow=none;endFill=0;" parent="WIyWlLk6GJQsqaUBKTNV-1" source="D81ILoCINkFqpTYE0A_S-15" edge="1">
          <mxGeometry relative="1" as="geometry">
            <mxPoint x="1029" y="517" as="targetPoint" />
          </mxGeometry>
        </mxCell>
        <mxCell id="D81ILoCINkFqpTYE0A_S-15" value="INTERFAZ DE USUARIO" style="rounded=0;whiteSpace=wrap;html=1;" parent="WIyWlLk6GJQsqaUBKTNV-1" vertex="1">
          <mxGeometry x="969" y="156" width="120" height="60" as="geometry" />
        </mxCell>
        <mxCell id="D81ILoCINkFqpTYE0A_S-16" style="edgeStyle=none;curved=1;rounded=0;orthogonalLoop=1;jettySize=auto;html=1;exitX=0.5;exitY=1;exitDx=0;exitDy=0;entryX=0.5;entryY=0;entryDx=0;entryDy=0;fontSize=12;startSize=8;endSize=8;endArrow=none;endFill=0;" parent="WIyWlLk6GJQsqaUBKTNV-1" source="D81ILoCINkFqpTYE0A_S-17" edge="1">
          <mxGeometry relative="1" as="geometry">
            <mxPoint x="1211" y="517" as="targetPoint" />
          </mxGeometry>
        </mxCell>
        <mxCell id="D81ILoCINkFqpTYE0A_S-17" value="INTERFAZ DE SERVICIO" style="rounded=0;whiteSpace=wrap;html=1;" parent="WIyWlLk6GJQsqaUBKTNV-1" vertex="1">
          <mxGeometry x="1151" y="156" width="120" height="60" as="geometry" />
        </mxCell>
        <mxCell id="D81ILoCINkFqpTYE0A_S-18" value="" style="endArrow=classic;html=1;rounded=0;fontSize=12;startSize=8;endSize=8;curved=1;" parent="WIyWlLk6GJQsqaUBKTNV-1" edge="1">
          <mxGeometry width="50" height="50" relative="1" as="geometry">
            <mxPoint x="847" y="260" as="sourcePoint" />
            <mxPoint x="1028" y="260" as="targetPoint" />
          </mxGeometry>
        </mxCell>
        <mxCell id="D81ILoCINkFqpTYE0A_S-19" value="&lt;font style=&quot;font-size: 10px;&quot;&gt;Pulsar el botón &quot;Iniciar sesión&quot;&lt;/font&gt;" style="text;html=1;align=center;verticalAlign=middle;resizable=0;points=[];autosize=1;strokeColor=none;fillColor=none;fontSize=16;" parent="WIyWlLk6GJQsqaUBKTNV-1" vertex="1">
          <mxGeometry x="860" y="231" width="160" height="30" as="geometry" />
        </mxCell>
        <mxCell id="D81ILoCINkFqpTYE0A_S-20" value="" style="endArrow=classic;html=1;rounded=0;fontSize=12;startSize=8;endSize=8;curved=1;" parent="WIyWlLk6GJQsqaUBKTNV-1" edge="1">
          <mxGeometry width="50" height="50" relative="1" as="geometry">
            <mxPoint x="1030" y="280" as="sourcePoint" />
            <mxPoint x="1211" y="280" as="targetPoint" />
          </mxGeometry>
        </mxCell>
        <mxCell id="D81ILoCINkFqpTYE0A_S-21" value="&lt;font style=&quot;font-size: 10px;&quot;&gt;Comprobar credenciales del usuario&lt;/font&gt;&lt;div&gt;&lt;span style=&quot;background-color: initial; font-size: 10px;&quot;&gt;iniciarSesion(Integer idUsuario)&lt;/span&gt;&lt;/div&gt;" style="text;html=1;align=center;verticalAlign=middle;resizable=0;points=[];autosize=1;strokeColor=none;fillColor=none;fontSize=16;" parent="WIyWlLk6GJQsqaUBKTNV-1" vertex="1">
          <mxGeometry x="1030.5" y="234" width="179" height="50" as="geometry" />
        </mxCell>
        <mxCell id="D81ILoCINkFqpTYE0A_S-22" value="" style="endArrow=classic;html=1;rounded=0;fontSize=12;startSize=8;endSize=8;curved=1;dashed=1;" parent="WIyWlLk6GJQsqaUBKTNV-1" edge="1">
          <mxGeometry width="50" height="50" relative="1" as="geometry">
            <mxPoint x="1210" y="320" as="sourcePoint" />
            <mxPoint x="1030" y="320" as="targetPoint" />
          </mxGeometry>
        </mxCell>
        <mxCell id="D81ILoCINkFqpTYE0A_S-23" value="&lt;font style=&quot;font-size: 10px;&quot;&gt;Conceder acceso&lt;/font&gt;" style="text;html=1;align=center;verticalAlign=middle;resizable=0;points=[];autosize=1;strokeColor=none;fillColor=none;fontSize=16;" parent="WIyWlLk6GJQsqaUBKTNV-1" vertex="1">
          <mxGeometry x="1070" y="290" width="100" height="30" as="geometry" />
        </mxCell>
        <mxCell id="D81ILoCINkFqpTYE0A_S-24" value="" style="endArrow=classic;html=1;rounded=0;fontSize=12;startSize=8;endSize=8;curved=1;dashed=1;" parent="WIyWlLk6GJQsqaUBKTNV-1" edge="1">
          <mxGeometry width="50" height="50" relative="1" as="geometry">
            <mxPoint x="1030" y="350" as="sourcePoint" />
            <mxPoint x="850" y="350" as="targetPoint" />
          </mxGeometry>
        </mxCell>
        <mxCell id="D81ILoCINkFqpTYE0A_S-25" value="&lt;font style=&quot;font-size: 10px;&quot;&gt;Conceder acceso&lt;/font&gt;" style="text;html=1;align=center;verticalAlign=middle;resizable=0;points=[];autosize=1;strokeColor=none;fillColor=none;fontSize=16;" parent="WIyWlLk6GJQsqaUBKTNV-1" vertex="1">
          <mxGeometry x="890" y="320" width="100" height="30" as="geometry" />
        </mxCell>
      </root>
    </mxGraphModel>
  </diagram>
</mxfile>
